<?xml version="1.0" encoding="iso-8859-1"?>
<!-- Uploaded to: SVG Repo, www.svgrepo.com, Generator: SVG Repo Mixer Tools -->
<svg fill="#000000" height="800px" width="800px" version="1.1" id="Layer_1" xmlns="http://www.w3.org/2000/svg" xmlns:xlink="http://www.w3.org/1999/xlink" 
	 viewBox="0 0 512.027 512.027" xml:space="preserve">
<g>
	<g>
		<g>
			<path d="M170.685,245.339c8.64,0,17.6-1.557,26.645-3.883c18.133,9.408,38.272,14.549,58.688,14.549c70.592,0,128-57.408,128-128
				c0-20.565-5.227-40.853-14.784-59.136c2.539-9.173,4.117-18.027,4.117-26.197c0-3.755-1.963-7.211-5.184-9.152l-53.333-32
				c-3.307-1.984-7.424-2.027-10.731-0.128c-2.432,1.365-3.819,3.712-4.608,6.293c-13.952-5.099-28.523-7.68-43.477-7.68
				c-70.592,0-128,57.408-128,128c0,14.955,2.581,29.525,7.68,43.477c-2.581,0.789-4.949,2.176-6.315,4.608
				c-1.877,3.349-1.835,7.445,0.149,10.752l32,53.333C163.453,243.377,166.93,245.339,170.685,245.339z M162.855,188.529
				c1.664-0.427,3.328-0.789,4.992-1.301c1.92-0.576,3.819-1.301,5.739-1.984c56.128-19.563,113.643-79.936,136.277-132.629
				c0-0.021,0.021-0.043,0.043-0.064c1.493-3.499,2.773-6.912,3.968-10.325c0.32-0.917,0.683-1.856,0.981-2.752
				c0.875-2.709,1.557-5.355,2.219-7.979c0.277-1.067,0.661-2.176,0.896-3.221l33.792,20.267c-0.576,6.187-2.261,12.885-4.48,19.776
				c-5.525,16.981-15.829,36.032-29.376,54.869c-0.043,0.064-0.085,0.128-0.149,0.192c-2.645,3.648-5.397,7.296-8.277,10.923
				c-0.661,0.832-1.344,1.643-2.005,2.453c-2.475,3.051-4.992,6.101-7.595,9.109c-3.499,3.989-7.083,7.957-10.795,11.797
				c-0.235,0.235-0.469,0.469-0.704,0.704c-3.947,4.053-8,8.021-12.139,11.84c-0.405,0.384-0.832,0.747-1.259,1.131
				c-3.968,3.648-8.021,7.168-12.139,10.56c-0.512,0.427-1.024,0.832-1.536,1.259c-3.989,3.243-8.043,6.336-12.139,9.28
				c-0.64,0.469-1.301,0.96-1.941,1.408c-3.84,2.731-7.723,5.248-11.627,7.68c-0.896,0.555-1.771,1.173-2.667,1.685
				c-3.392,2.048-6.784,3.84-10.176,5.611c-4.736,2.453-9.472,4.715-14.208,6.635c-0.299,0.128-0.597,0.277-0.896,0.384
				c-3.733,1.472-7.445,2.731-11.157,3.819c-6.784,2.027-13.483,3.584-19.925,4.096l-20.139-33.579
				C158.567,189.766,160.722,189.083,162.855,188.529z"/>
			<path d="M352.018,341.339h-192c-3.627,0-6.976,1.835-8.96,4.864c-1.963,3.051-2.24,6.869-0.768,10.176
				c1.045,2.325,21.867,47.531,69.248,64.192c-24.469,18.816-44.139,48.939-47.189,53.739c-1.088,1.707-1.664,3.691-1.664,5.717
				v21.333c0,5.888,4.779,10.667,10.667,10.667h149.333c5.888,0,10.667-4.779,10.667-10.667v-21.333
				c0-2.027-0.576-4.011-1.664-5.717c-3.051-4.8-22.741-34.923-47.189-53.739c47.381-16.661,68.224-61.845,69.248-64.192
				c1.472-3.307,1.195-7.125-0.768-10.176C358.994,343.174,355.645,341.339,352.018,341.339z"/>
			<path d="M299.474,274.225c-2.411-1.472-5.333-1.941-8.107-1.28c-24,5.824-46.699,5.824-70.699,0
				c-2.795-0.661-5.717-0.213-8.107,1.28c-2.411,1.493-4.139,3.883-4.8,6.656c-2.005,8.448-4.267,17.131-6.421,25.408
				c-1.237,4.757-2.453,9.344-3.563,13.739h116.437c-1.109-4.395-2.283-8.96-3.541-13.739c-2.155-8.277-4.416-16.939-6.421-25.408
				C303.613,278.107,301.885,275.697,299.474,274.225z"/>
		</g>
	</g>
</g>
</svg>