<svg id="logo-svg" class="svg-icon" width="32" height="24" viewBox="0 0 32 24" fill="none" xmlns="http://www.w3.org/2000/svg">
            <g clip-path="url(#clip0_16709_89713)">
                <path fill-rule="evenodd" clip-rule="evenodd" d="M6.36575 1.19906C6.96448 0.315139 7.92223 0 7.92223 0C7.92223 0 7.9119 1.11891 7.31546 2.00064C6.71902 2.88566 5.75898 3.1997 5.75898 3.1997C5.75898 3.1997 5.76931 2.08299 6.36575 1.19906ZM6.27399 3.35123C7.25467 3.19531 8.13213 3.72896 8.13213 3.72896C8.13213 3.72896 7.42099 4.51516 6.44145 4.67108C5.46191 4.827 4.58331 4.29445 4.58331 4.29445C4.58331 4.29445 5.2933 3.50715 6.27399 3.35123ZM5.76013 5.41555C5.76013 5.41555 4.77027 5.26622 3.90428 5.80207C3.0383 6.33901 2.62194 7.3558 2.62194 7.3558C2.62194 7.3558 3.61295 7.50513 4.48008 6.96929C5.34606 6.43344 5.76013 5.41665 5.76013 5.41665V5.41555ZM2.30537 9.55628C2.91672 8.68333 3.8802 8.39016 3.8802 8.39016C3.8802 8.39016 3.85267 9.50796 3.24132 10.3798C2.62997 11.2517 1.66649 11.5459 1.66649 11.5459C1.66649 11.5459 1.69401 10.4281 2.30537 9.55628ZM3.35028 13.9781C3.60492 12.9075 3.23673 11.8688 3.23673 11.8688C3.23673 11.8688 2.45448 12.5649 2.19984 13.6355C1.94521 14.705 2.31225 15.746 2.31225 15.746C2.31225 15.746 3.09336 15.0498 3.34914 13.9781H3.35028ZM3.56018 15.0893L3.55982 15.0902L3.55904 15.0893H3.56018ZM3.55982 15.0902C3.58658 15.1185 4.29075 15.8743 4.46402 16.945C4.64181 18.0354 4.20021 19.0379 4.20021 19.0379C4.20021 19.0379 3.47301 18.2726 3.29523 17.1822C3.1204 16.11 3.5456 15.1228 3.55982 15.0902ZM6.29349 18.8633C5.85533 17.8696 4.96526 17.3601 4.96526 17.3601C4.96526 17.3601 4.78862 18.4614 5.22678 19.4529C5.66608 20.4467 6.555 20.9562 6.555 20.9562C6.555 20.9562 6.73279 19.8548 6.29349 18.8622V18.8633ZM8.03349 21.2439C7.32808 20.4686 7.1698 19.364 7.1698 19.364C7.1698 19.364 8.15851 19.5177 8.86621 20.2919C9.57391 21.0671 9.72875 22.1717 9.72875 22.1717C9.72875 22.1717 8.74119 22.0202 8.03349 21.2439ZM1.8328 5.48693C1.8328 5.48693 1.25242 6.3983 1.27192 7.50623C1.29142 8.61306 1.90162 9.49918 1.90162 9.49918C1.90162 9.49918 2.48086 8.5878 2.46136 7.48097C2.44186 6.37195 1.8328 5.48693 1.8328 5.48693ZM0.425431 12.7055C-0.0872779 11.7557 0.00677614 10.6422 0.00677614 10.6422C0.00677614 10.6422 0.931259 11.0683 1.44282 12.0159C1.95438 12.9635 1.86148 14.0758 1.86148 14.0758C1.86148 14.0758 0.936994 13.652 0.425431 12.7055ZM0.306143 15.2892C0.306143 15.2892 0.608952 16.3543 1.41185 17.0021C2.21361 17.6511 3.21264 17.6368 3.21264 17.6368C3.21264 17.6368 2.90984 16.5717 2.10693 15.9238C1.30403 15.2749 0.306143 15.2892 0.306143 15.2892ZM2.32601 19.5057C2.32601 19.5057 3.25508 19.0928 4.21053 19.3794H4.20939C5.16484 19.6671 5.78651 20.5411 5.78651 20.5411C5.78651 20.5411 4.85859 20.9529 3.90314 20.6674C2.94654 20.3808 2.32601 19.5057 2.32601 19.5057ZM6.31987 21.2208C5.3323 21.2911 4.5684 22.0136 4.5684 22.0136C4.5684 22.0136 5.408 22.6219 6.39442 22.5505C7.38199 22.4803 8.14475 21.7577 8.14475 21.7577C8.14475 21.7577 7.30629 21.1494 6.31987 21.2208ZM9.44315 23.8572C8.50032 24.1932 7.55519 23.8309 7.55519 23.8309C7.55519 23.8309 8.14016 22.9228 9.08185 22.5868C10.0258 22.2519 10.9698 22.6153 10.9698 22.6153C10.9698 22.6153 10.386 23.5212 9.44315 23.8572ZM4.41241 4.21978C4.72095 3.16786 4.40667 2.10495 4.40667 2.10495C4.40667 2.10495 3.59115 2.7495 3.28146 3.80362C2.97407 4.85555 3.2872 5.91736 3.2872 5.91736C3.2872 5.91736 4.10272 5.27171 4.41241 4.21978ZM10.074 20.8892C10.074 20.8892 11.0719 20.8628 11.8805 21.503C12.6892 22.1432 13 23.205 13 23.205C13 23.205 12.0021 23.2302 11.1935 22.5912C10.3837 21.951 10.074 20.8892 10.074 20.8892ZM26.684 3.1997C26.684 3.1997 25.7978 2.88566 25.2473 2.00064C24.6967 1.11891 24.6872 0 24.6872 0C24.6872 0 25.5712 0.315139 26.1239 1.19906C26.6745 2.08299 26.684 3.1997 26.684 3.1997ZM27.7693 4.29445C27.7693 4.29445 26.9582 4.827 26.054 4.67108C25.1499 4.51406 24.4934 3.72896 24.4934 3.72896C24.4934 3.72896 25.3034 3.19531 26.2086 3.35123C27.1139 3.50715 27.7693 4.29445 27.7693 4.29445ZM27.8645 6.96819C28.665 7.50403 29.5797 7.3547 29.5797 7.3547C29.5797 7.3547 29.1954 6.33791 28.396 5.80097C27.5967 5.26622 26.683 5.41446 26.683 5.41446C26.683 5.41446 27.0662 6.43124 27.8645 6.96709V6.96819ZM30.4617 11.5448C30.4617 11.5448 29.5723 11.2506 29.008 10.3787C28.4437 9.50687 28.4183 8.38906 28.4183 8.38906C28.4183 8.38906 29.3076 8.68333 29.872 9.55518C30.4352 10.427 30.4617 11.5448 30.4617 11.5448ZM28.9085 13.9781C29.1446 15.0498 29.8656 15.746 29.8656 15.746C29.8656 15.746 30.2044 14.705 29.9694 13.6355C29.7343 12.5649 29.0122 11.8688 29.0122 11.8688C29.0122 11.8688 28.6734 12.9075 28.9074 13.9781H28.9085ZM28.1218 19.039C28.1218 19.039 27.7142 18.0365 27.8783 16.9461C28.0403 15.8547 28.7126 15.0904 28.7126 15.0904C28.7126 15.0904 29.1202 16.0929 28.9572 17.1833C28.7941 18.2737 28.1218 19.039 28.1218 19.039ZM26.1906 18.8622C25.7862 19.8559 25.9492 20.9562 25.9492 20.9562C25.9492 20.9562 26.7698 20.4467 27.1753 19.4529C27.5797 18.4603 27.4167 17.3601 27.4167 17.3601C27.4167 17.3601 26.5951 17.8685 26.1906 18.8633V18.8622ZM23.0196 22.1717C23.0196 22.1717 23.1625 21.0671 23.8158 20.2919C24.468 19.5166 25.3817 19.364 25.3817 19.364C25.3817 19.364 25.2356 20.4686 24.5845 21.2439C23.9312 22.0202 23.0196 22.1717 23.0196 22.1717ZM29.728 7.48097C29.71 8.5878 30.2447 9.49918 30.2447 9.49918C30.2447 9.49918 30.8079 8.61306 30.8259 7.50623C30.8439 6.39721 30.3082 5.48693 30.3082 5.48693C30.3082 5.48693 29.746 6.37195 29.728 7.48097ZM30.2817 14.0758C30.2817 14.0758 30.196 12.9635 30.6682 12.0159C31.1404 11.0683 31.9937 10.6422 31.9937 10.6422C31.9937 10.6422 32.0806 11.7557 31.6073 12.7055C31.1351 13.6531 30.2817 14.0758 30.2817 14.0758ZM30.0551 15.9238C29.314 16.5717 29.0345 17.6368 29.0345 17.6368C29.0345 17.6368 29.9567 17.6522 30.6968 17.0021C31.4379 16.3532 31.7174 15.2892 31.7174 15.2892C31.7174 15.2892 30.7952 15.2738 30.0541 15.9238H30.0551ZM26.6586 20.5411C26.6586 20.5411 27.2325 19.6671 28.1144 19.3794H28.1134C28.9953 19.0939 29.8529 19.5057 29.8529 19.5057C29.8529 19.5057 29.2801 20.3808 28.3971 20.6674C27.5162 20.9529 26.6586 20.5411 26.6586 20.5411ZM26.1663 21.2208C25.2547 21.1505 24.4818 21.7577 24.4818 21.7577C24.4818 21.7577 25.1859 22.4792 26.0975 22.5505C27.0091 22.6208 27.7841 22.0136 27.7841 22.0136C27.7841 22.0136 27.0789 21.2911 26.1673 21.2208H26.1663ZM21.874 22.6153C21.874 22.6153 22.7464 22.2519 23.6168 22.5868C24.486 22.9228 25.026 23.8309 25.026 23.8309C25.026 23.8309 24.1536 24.1932 23.2832 23.8572C22.414 23.5212 21.874 22.6153 21.874 22.6153ZM27.927 4.21978C28.2129 5.27281 28.9657 5.91736 28.9657 5.91736C28.9657 5.91736 29.2547 4.85555 28.971 3.80362C28.6851 2.7495 27.9323 2.10495 27.9323 2.10495C27.9323 2.10495 27.6422 3.16676 27.927 4.21978ZM21.6676 22.5912C20.9211 23.2302 20 23.205 20 23.205C20 23.205 20.2869 22.1443 21.0334 21.503C21.7798 20.8628 22.7009 20.8892 22.7009 20.8892C22.7009 20.8892 22.414 21.9499 21.6676 22.5912ZM12.7965 18H9V17.9734L9.47456 16.6426C10.8389 15.3916 12.5296 14.5133 14.2202 13.8745L12.7965 18ZM18.2836 4L20.4785 9.64259L20.5081 9.61597C20.6564 10.0152 20.3598 10.4144 19.9149 10.4943C19.1141 10.6274 18.2243 10.8403 17.3048 11.1331L16.2371 8.01901L14.8134 12.1445C13.0634 12.9696 11.3432 14.1407 9.80082 15.711L13.5677 4.90494L18.2836 4ZM20.7158 12.4106C21.131 12.3574 21.5462 12.597 21.6649 12.9696V12.943L23.4445 17.9734L19.648 17.9734L17.8684 12.8365C18.9658 12.6236 19.9743 12.4905 20.7158 12.4106ZM21.8428 8.09886C22.436 10.6008 22.5843 10.8935 24.9572 10.6008H24.9868C24.9868 10.6008 25.0165 10.654 24.9868 10.654C22.8513 11.1065 22.6437 11.3992 22.9403 13.3156C22.9403 13.3422 23.0292 13.9278 23.0292 13.9011C22.525 12.0114 22.0505 11.2395 19.9149 11.5057C19.9149 11.5057 19.8853 11.4525 19.9149 11.4525C22.2581 10.9734 22.2877 10.654 21.8428 8.09886Z" fill="black"></path>
            </g>
            <defs>
                <clipPath id="clip0_16709_89713">
                    <rect width="32" height="24" fill="white"></rect>
                </clipPath>
            </defs>
        </svg>